<mxfile host="app.diagrams.net" modified="2024-02-07T14:09:16.125Z" agent="Mozilla/5.0 (Windows NT 10.0; Win64; x64) AppleWebKit/537.36 (KHTML, like Gecko) Chrome/120.0.0.0 YaBrowser/24.1.0.0 Safari/537.36" etag="Mbwgg0d6XwIcC4KjsjOb" version="23.1.0" type="device">
  <diagram name="Страница — 1" id="4E6hbuSbHn7ZUeTZXxk_">
    <mxGraphModel dx="1459" dy="807" grid="1" gridSize="10" guides="1" tooltips="1" connect="1" arrows="1" fold="1" page="1" pageScale="1" pageWidth="827" pageHeight="1169" math="0" shadow="0">
      <root>
        <mxCell id="0" />
        <mxCell id="1" parent="0" />
        <mxCell id="I5jhy7SfYUPQACsIbma6-2" value="&lt;b&gt;&lt;font style=&quot;font-size: 24px;&quot;&gt;Сортировка вставками&lt;/font&gt;&lt;/b&gt;" style="text;html=1;strokeColor=none;fillColor=none;align=center;verticalAlign=middle;whiteSpace=wrap;rounded=0;" vertex="1" parent="1">
          <mxGeometry x="280" y="40" width="250" height="30" as="geometry" />
        </mxCell>
        <mxCell id="I5jhy7SfYUPQACsIbma6-6" value="" style="edgeStyle=orthogonalEdgeStyle;rounded=0;orthogonalLoop=1;jettySize=auto;html=1;" edge="1" parent="1" source="I5jhy7SfYUPQACsIbma6-3" target="I5jhy7SfYUPQACsIbma6-4">
          <mxGeometry relative="1" as="geometry" />
        </mxCell>
        <mxCell id="I5jhy7SfYUPQACsIbma6-3" value="Начало алгоритма&lt;br&gt;" style="ellipse;whiteSpace=wrap;html=1;" vertex="1" parent="1">
          <mxGeometry x="340" y="120" width="120" height="40" as="geometry" />
        </mxCell>
        <mxCell id="I5jhy7SfYUPQACsIbma6-24" value="" style="edgeStyle=orthogonalEdgeStyle;rounded=0;orthogonalLoop=1;jettySize=auto;html=1;" edge="1" parent="1" source="I5jhy7SfYUPQACsIbma6-4" target="I5jhy7SfYUPQACsIbma6-20">
          <mxGeometry relative="1" as="geometry" />
        </mxCell>
        <mxCell id="I5jhy7SfYUPQACsIbma6-4" value="Получаем на вход массив" style="shape=parallelogram;perimeter=parallelogramPerimeter;whiteSpace=wrap;html=1;fixedSize=1;" vertex="1" parent="1">
          <mxGeometry x="340" y="200" width="120" height="40" as="geometry" />
        </mxCell>
        <mxCell id="I5jhy7SfYUPQACsIbma6-12" value="" style="edgeStyle=orthogonalEdgeStyle;rounded=0;orthogonalLoop=1;jettySize=auto;html=1;" edge="1" parent="1" source="I5jhy7SfYUPQACsIbma6-9" target="I5jhy7SfYUPQACsIbma6-11">
          <mxGeometry relative="1" as="geometry" />
        </mxCell>
        <mxCell id="I5jhy7SfYUPQACsIbma6-9" value="Создаем переменную &quot;current&quot; и сохраняем в нее элемент массива с индексом i&amp;nbsp;" style="rounded=0;whiteSpace=wrap;html=1;" vertex="1" parent="1">
          <mxGeometry x="320" y="540" width="160" height="80" as="geometry" />
        </mxCell>
        <mxCell id="I5jhy7SfYUPQACsIbma6-36" value="" style="edgeStyle=orthogonalEdgeStyle;rounded=0;orthogonalLoop=1;jettySize=auto;html=1;" edge="1" parent="1" source="I5jhy7SfYUPQACsIbma6-11" target="I5jhy7SfYUPQACsIbma6-35">
          <mxGeometry relative="1" as="geometry" />
        </mxCell>
        <mxCell id="I5jhy7SfYUPQACsIbma6-11" value="Сохраняем в переменную prev предыдущий индекс со значением i - 1" style="rounded=0;whiteSpace=wrap;html=1;" vertex="1" parent="1">
          <mxGeometry x="320" y="680" width="160" height="80" as="geometry" />
        </mxCell>
        <mxCell id="I5jhy7SfYUPQACsIbma6-22" value="" style="edgeStyle=orthogonalEdgeStyle;rounded=0;orthogonalLoop=1;jettySize=auto;html=1;" edge="1" parent="1" source="I5jhy7SfYUPQACsIbma6-18" target="I5jhy7SfYUPQACsIbma6-21">
          <mxGeometry relative="1" as="geometry" />
        </mxCell>
        <mxCell id="I5jhy7SfYUPQACsIbma6-18" value="Элемент массива с индексом prev + 1 = элемент массива с индексом prev" style="whiteSpace=wrap;html=1;rounded=0;" vertex="1" parent="1">
          <mxGeometry x="320" y="1060" width="160" height="80" as="geometry" />
        </mxCell>
        <mxCell id="I5jhy7SfYUPQACsIbma6-42" style="edgeStyle=orthogonalEdgeStyle;rounded=0;orthogonalLoop=1;jettySize=auto;html=1;entryX=1;entryY=0.5;entryDx=0;entryDy=0;entryPerimeter=0;" edge="1" parent="1" source="I5jhy7SfYUPQACsIbma6-21" target="I5jhy7SfYUPQACsIbma6-38">
          <mxGeometry relative="1" as="geometry">
            <mxPoint x="640" y="950" as="targetPoint" />
            <Array as="points">
              <mxPoint x="640" y="1230" />
              <mxPoint x="640" y="960" />
            </Array>
          </mxGeometry>
        </mxCell>
        <mxCell id="I5jhy7SfYUPQACsIbma6-21" value="Prev -=1&amp;nbsp;" style="whiteSpace=wrap;html=1;rounded=0;" vertex="1" parent="1">
          <mxGeometry x="320" y="1190" width="160" height="80" as="geometry" />
        </mxCell>
        <mxCell id="I5jhy7SfYUPQACsIbma6-37" value="" style="edgeStyle=orthogonalEdgeStyle;rounded=0;orthogonalLoop=1;jettySize=auto;html=1;" edge="1" parent="1" source="I5jhy7SfYUPQACsIbma6-20" target="I5jhy7SfYUPQACsIbma6-32">
          <mxGeometry relative="1" as="geometry" />
        </mxCell>
        <mxCell id="I5jhy7SfYUPQACsIbma6-20" value="Начало цикла, создание переменной i = 1" style="shape=trapezoid;perimeter=trapezoidPerimeter;whiteSpace=wrap;html=1;fixedSize=1;direction=west;" vertex="1" parent="1">
          <mxGeometry x="300" y="280" width="200" height="80" as="geometry" />
        </mxCell>
        <mxCell id="I5jhy7SfYUPQACsIbma6-29" value="" style="edgeStyle=orthogonalEdgeStyle;rounded=0;orthogonalLoop=1;jettySize=auto;html=1;" edge="1" parent="1" source="I5jhy7SfYUPQACsIbma6-25" target="I5jhy7SfYUPQACsIbma6-28">
          <mxGeometry relative="1" as="geometry" />
        </mxCell>
        <mxCell id="I5jhy7SfYUPQACsIbma6-25" value="Конец цикла" style="verticalLabelPosition=middle;verticalAlign=middle;html=1;shape=trapezoid;perimeter=trapezoidPerimeter;whiteSpace=wrap;size=0.23;arcSize=10;flipV=1;labelPosition=center;align=center;direction=east;" vertex="1" parent="1">
          <mxGeometry x="110" y="1320" width="160" height="60" as="geometry" />
        </mxCell>
        <mxCell id="I5jhy7SfYUPQACsIbma6-46" value="" style="edgeStyle=orthogonalEdgeStyle;rounded=0;orthogonalLoop=1;jettySize=auto;html=1;" edge="1" parent="1" source="I5jhy7SfYUPQACsIbma6-28" target="I5jhy7SfYUPQACsIbma6-45">
          <mxGeometry relative="1" as="geometry" />
        </mxCell>
        <mxCell id="I5jhy7SfYUPQACsIbma6-28" value="Элемент массива со значением prev + 1 = current" style="rounded=0;whiteSpace=wrap;html=1;" vertex="1" parent="1">
          <mxGeometry x="110" y="1440" width="160" height="80" as="geometry" />
        </mxCell>
        <mxCell id="I5jhy7SfYUPQACsIbma6-33" value="" style="edgeStyle=orthogonalEdgeStyle;rounded=0;orthogonalLoop=1;jettySize=auto;html=1;" edge="1" parent="1" source="I5jhy7SfYUPQACsIbma6-32" target="I5jhy7SfYUPQACsIbma6-9">
          <mxGeometry relative="1" as="geometry" />
        </mxCell>
        <mxCell id="I5jhy7SfYUPQACsIbma6-50" style="edgeStyle=orthogonalEdgeStyle;rounded=0;orthogonalLoop=1;jettySize=auto;html=1;entryX=0.5;entryY=0;entryDx=0;entryDy=0;" edge="1" parent="1" source="I5jhy7SfYUPQACsIbma6-32" target="I5jhy7SfYUPQACsIbma6-49">
          <mxGeometry relative="1" as="geometry" />
        </mxCell>
        <mxCell id="I5jhy7SfYUPQACsIbma6-32" value="i &amp;gt; 0 и i &amp;lt; длины массива" style="rhombus;whiteSpace=wrap;html=1;" vertex="1" parent="1">
          <mxGeometry x="280" y="410" width="240" height="80" as="geometry" />
        </mxCell>
        <mxCell id="I5jhy7SfYUPQACsIbma6-34" value="Да" style="text;html=1;strokeColor=none;fillColor=none;align=center;verticalAlign=middle;whiteSpace=wrap;rounded=0;" vertex="1" parent="1">
          <mxGeometry x="390" y="490" width="60" height="30" as="geometry" />
        </mxCell>
        <mxCell id="I5jhy7SfYUPQACsIbma6-39" value="" style="edgeStyle=orthogonalEdgeStyle;rounded=0;orthogonalLoop=1;jettySize=auto;html=1;" edge="1" parent="1" source="I5jhy7SfYUPQACsIbma6-35" target="I5jhy7SfYUPQACsIbma6-38">
          <mxGeometry relative="1" as="geometry" />
        </mxCell>
        <mxCell id="I5jhy7SfYUPQACsIbma6-35" value="Начало цикла" style="verticalLabelPosition=middle;verticalAlign=middle;html=1;shape=trapezoid;perimeter=trapezoidPerimeter;whiteSpace=wrap;size=0.23;arcSize=10;flipV=1;labelPosition=center;align=center;direction=west;" vertex="1" parent="1">
          <mxGeometry x="320" y="800" width="160" height="50" as="geometry" />
        </mxCell>
        <mxCell id="I5jhy7SfYUPQACsIbma6-40" value="" style="edgeStyle=orthogonalEdgeStyle;rounded=0;orthogonalLoop=1;jettySize=auto;html=1;" edge="1" parent="1" source="I5jhy7SfYUPQACsIbma6-38" target="I5jhy7SfYUPQACsIbma6-18">
          <mxGeometry relative="1" as="geometry" />
        </mxCell>
        <mxCell id="I5jhy7SfYUPQACsIbma6-43" style="edgeStyle=orthogonalEdgeStyle;rounded=0;orthogonalLoop=1;jettySize=auto;html=1;entryX=0.5;entryY=0;entryDx=0;entryDy=0;" edge="1" parent="1" source="I5jhy7SfYUPQACsIbma6-38" target="I5jhy7SfYUPQACsIbma6-25">
          <mxGeometry relative="1" as="geometry" />
        </mxCell>
        <mxCell id="I5jhy7SfYUPQACsIbma6-38" value="prev &amp;gt;= 0 И элемент массива с индексом prev &amp;gt; current" style="strokeWidth=2;html=1;shape=mxgraph.flowchart.decision;whiteSpace=wrap;" vertex="1" parent="1">
          <mxGeometry x="280" y="900" width="240" height="120" as="geometry" />
        </mxCell>
        <mxCell id="I5jhy7SfYUPQACsIbma6-41" value="Да" style="text;html=1;strokeColor=none;fillColor=none;align=center;verticalAlign=middle;whiteSpace=wrap;rounded=0;" vertex="1" parent="1">
          <mxGeometry x="390" y="1020" width="60" height="30" as="geometry" />
        </mxCell>
        <mxCell id="I5jhy7SfYUPQACsIbma6-44" value="Нет&lt;br&gt;" style="text;html=1;strokeColor=none;fillColor=none;align=center;verticalAlign=middle;whiteSpace=wrap;rounded=0;" vertex="1" parent="1">
          <mxGeometry x="210" y="930" width="60" height="30" as="geometry" />
        </mxCell>
        <mxCell id="I5jhy7SfYUPQACsIbma6-47" style="edgeStyle=orthogonalEdgeStyle;rounded=0;orthogonalLoop=1;jettySize=auto;html=1;entryX=0;entryY=0.5;entryDx=0;entryDy=0;" edge="1" parent="1" source="I5jhy7SfYUPQACsIbma6-45" target="I5jhy7SfYUPQACsIbma6-32">
          <mxGeometry relative="1" as="geometry">
            <Array as="points">
              <mxPoint x="80" y="1590" />
              <mxPoint x="80" y="450" />
            </Array>
          </mxGeometry>
        </mxCell>
        <mxCell id="I5jhy7SfYUPQACsIbma6-45" value="i += 1" style="rounded=0;whiteSpace=wrap;html=1;" vertex="1" parent="1">
          <mxGeometry x="105" y="1560" width="170" height="60" as="geometry" />
        </mxCell>
        <mxCell id="I5jhy7SfYUPQACsIbma6-54" value="" style="edgeStyle=orthogonalEdgeStyle;rounded=0;orthogonalLoop=1;jettySize=auto;html=1;" edge="1" parent="1" source="I5jhy7SfYUPQACsIbma6-49" target="I5jhy7SfYUPQACsIbma6-53">
          <mxGeometry relative="1" as="geometry" />
        </mxCell>
        <mxCell id="I5jhy7SfYUPQACsIbma6-49" value="Конец алгоритма" style="verticalLabelPosition=middle;verticalAlign=middle;html=1;shape=trapezoid;perimeter=trapezoidPerimeter;whiteSpace=wrap;size=0.23;arcSize=10;flipV=1;labelPosition=center;align=center;" vertex="1" parent="1">
          <mxGeometry x="560" y="1320" width="180" height="60" as="geometry" />
        </mxCell>
        <mxCell id="I5jhy7SfYUPQACsIbma6-51" value="Нет&lt;br&gt;" style="text;html=1;strokeColor=none;fillColor=none;align=center;verticalAlign=middle;whiteSpace=wrap;rounded=0;" vertex="1" parent="1">
          <mxGeometry x="550" y="420" width="60" height="30" as="geometry" />
        </mxCell>
        <mxCell id="I5jhy7SfYUPQACsIbma6-56" style="edgeStyle=orthogonalEdgeStyle;rounded=0;orthogonalLoop=1;jettySize=auto;html=1;entryX=0.5;entryY=0;entryDx=0;entryDy=0;" edge="1" parent="1" source="I5jhy7SfYUPQACsIbma6-53" target="I5jhy7SfYUPQACsIbma6-55">
          <mxGeometry relative="1" as="geometry" />
        </mxCell>
        <mxCell id="I5jhy7SfYUPQACsIbma6-53" value="Возращаем отсортированный массив" style="shape=parallelogram;perimeter=parallelogramPerimeter;whiteSpace=wrap;html=1;fixedSize=1;" vertex="1" parent="1">
          <mxGeometry x="590" y="1430" width="120" height="60" as="geometry" />
        </mxCell>
        <mxCell id="I5jhy7SfYUPQACsIbma6-55" value="Конец алгоритма&lt;br&gt;" style="ellipse;whiteSpace=wrap;html=1;" vertex="1" parent="1">
          <mxGeometry x="340" y="1660" width="120" height="80" as="geometry" />
        </mxCell>
      </root>
    </mxGraphModel>
  </diagram>
</mxfile>
